<?xml version="1.0" encoding="UTF-8"?>
<svg xmlns="http://www.w3.org/2000/svg" xmlns:xlink="http://www.w3.org/1999/xlink" width="24pt" height="24pt" viewBox="0 0 24 24" version="1.1">
<g id="surface1">
<path style=" stroke:none;fill-rule:nonzero;fill:#E0EDFA;fill-opacity:1;" d="M 6 7 C 3.238281 7 1 9.238281 1 12 C 1 14.761719 3.238281 17 6 17 L 10 17 L 10 15 L 6 15 C 4.34375 15 3 13.65625 3 12 C 3 10.34375 4.34375 9 6 9 L 10 9 L 10 7 Z M 14 7 L 14 9 L 18 9 C 19.65625 9 21 10.34375 21 12 C 21 13.65625 19.65625 15 18 15 L 14 15 L 14 17 L 18 17 C 20.761719 17 23 14.761719 23 12 C 23 9.238281 20.761719 7 18 7 Z M 7 11 L 7 13 L 17 13 L 17 11 Z "/>
</g>
</svg>
