<?xml version="1.0" encoding="UTF-8"?>
<svg xmlns="http://www.w3.org/2000/svg" xmlns:xlink="http://www.w3.org/1999/xlink" width="24pt" height="24pt" viewBox="0 0 24 24" version="1.1">
<g id="surface1">
<path style=" stroke:none;fill-rule:nonzero;fill:#E0EDFA;fill-opacity:1;" d="M 12 2 C 6.484375 2 2 6.484375 2 12 C 2 17.515625 6.484375 22 12 22 C 17.515625 22 22 17.515625 22 12 C 22 6.484375 17.515625 2 12 2 Z M 16.757813 13.523438 C 16.410156 14.597656 15.65625 15.507813 14.714844 16.125 C 13.0625 17.207031 11.585938 17.148438 10.304688 16.6875 L 8.046875 18.945313 C 6.800781 18.234375 5.765625 17.199219 5.054688 15.953125 L 7.3125 13.695313 C 6.851563 12.414063 6.792969 10.941406 7.867188 9.292969 C 8.484375 8.347656 9.398438 7.59375 10.472656 7.246094 C 11.679688 6.855469 12.824219 6.960938 13.820313 7.351563 L 11.585938 9.585938 C 10.804688 10.367188 10.804688 11.632813 11.585938 12.414063 C 12.367188 13.195313 13.632813 13.195313 14.414063 12.414063 L 16.648438 10.179688 C 17.039063 11.175781 17.144531 12.316406 16.757813 13.523438 Z "/>
</g>
</svg>
