<?xml version="1.0" encoding="UTF-8"?>
<svg xmlns="http://www.w3.org/2000/svg" xmlns:xlink="http://www.w3.org/1999/xlink" width="24pt" height="24pt" viewBox="0 0 24 24" version="1.1">
<g id="surface1">
<path style=" stroke:none;fill-rule:nonzero;fill:#E0EDFA;fill-opacity:1;" d="M 18 2 L 6 2 C 4.894531 2 4 2.894531 4 4 L 4 20 C 4 21.105469 4.894531 22 6 22 L 18 22 C 19.105469 22 20 21.105469 20 20 L 20 4 C 20 2.894531 19.105469 2 18 2 Z M 18 8 L 6 8 L 6 4 L 18 4 Z M 9 12 L 7 12 L 7 10 L 9 10 Z M 9 16 L 7 16 L 7 14 L 9 14 Z M 9 20 L 7 20 L 7 18 L 9 18 Z M 17 20 L 11 20 L 11 18 L 17 18 Z M 13 16 L 11 16 L 11 14 L 13 14 Z M 17 16 L 15 16 L 15 14 L 17 14 Z M 17 12 L 15 12 L 15 10 L 17 10 Z M 13 12 L 11 12 L 11 10 L 13 10 Z "/>
</g>
</svg>
